<?xml version="1.0" encoding="utf-8"?>
<!-- Generator: Adobe Illustrator 22.1.0, SVG Export Plug-In . SVG Version: 6.00 Build 0)  -->
<svg version="1.1" id="Layer_1" 
	 xmlns="http://www.w3.org/2000/svg" xmlns:xlink="http://www.w3.org/1999/xlink" x="0px" y="0px" viewBox="0 0 250 250"
	  xml:space="preserve" fill="#15161e">
<g width="100%" height="100%">
	<path d="M127.4,40.6c-49,0-89,39.9-89,88.9c0,49.1,39.9,89,89,89c49,0,89-39.9,89-89C216.3,80.5,176.4,40.6,127.4,40.6z
		 M200.9,129.5c0,2.4-0.1,4.7-0.3,7c-1.4,15.1-7.4,28.9-16.6,39.9c-3,3.6-6.3,6.9-9.9,9.9c-11,9.1-24.8,15-39.9,16.4
		c-2.2,0.2-4.5,0.3-6.8,0.3c-2.4,0-4.8-0.1-7.2-0.3c-15-1.5-28.7-7.4-39.7-16.5c-3.6-3-6.9-6.3-9.9-9.9c-9.1-11-15-24.7-16.4-39.7
		c-0.2-2.3-0.3-4.6-0.3-7c0-2.4,0.1-4.7,0.3-7c1.4-15,7.3-28.7,16.4-39.7c3-3.6,6.3-6.9,9.9-9.9c11-9.1,24.7-15.1,39.7-16.5
		c2.4-0.2,4.8-0.4,7.2-0.4c2.3,0,4.6,0.1,6.8,0.3c15.1,1.4,28.8,7.3,39.9,16.4c3.6,3,6.9,6.3,9.9,9.9c9.1,11,15.1,24.8,16.6,39.9
		C200.7,124.9,200.9,127.2,200.9,129.5z"/>
	<path d="M127.4,222.3c-6.8,0-13.5-0.7-19.8-2.2c-0.1,0.7-0.1,1.9-0.1,2.5c0,5.6,4.5,10.2,10.1,10.2c0.6,0,1.2-0.1,1.8-0.2
		c-1.7,1.8-2.7,4.3-2.7,7c0,5.6,4.5,10.2,10.1,10.2c5.6,0,10.2-4.6,10.2-10.2c0-2.8-1.1-5.3-2.9-7.1c0.8,0.2,1.6,0.3,2.5,0.3
		c5.6,0,10.1-4.6,10.1-10.2c0-0.6,0-1.6-0.1-2.4C140.4,221.6,134,222.3,127.4,222.3z"/>
	<path d="M199.9,71.8c4.7-0.6,7.5-4.6,7.5-9.8c0-5.7-4.6-10.4-10.4-10.4c-5.2,0-8.7,2.8-9.4,7.5C192.1,63,196.2,67.2,199.9,71.8z"/>
	<path d="M54.6,72.1c3.6-4.5,7.5-8.7,11.9-12.4c-0.5-4.9-4.1-7.8-9.4-7.8c-5.7,0-10.4,4.6-10.4,10.4C46.7,67.6,49.6,71.7,54.6,72.1z
		"/>
	<path d="M198.6,188.8c-1.4,1.7-2.9,3.4-4.5,5c0,0,0,0,0,0c-0.1,0.2-0.2,0.3-0.3,0.3c0,0.1-0.4,0.4-0.8,0.8c0,0,0,0,0,0
		c-1.7,1.7-3.4,3.3-5.2,4.8c-0.1,0.2-0.2,0.3-0.2,0.3c0.1,5.6,3.8,8.9,9.5,8.9c5.7,0,10.4-4.6,10.4-10.4
		C207.4,193.1,204.1,188.9,198.6,188.8z"/>
	<path d="M60.3,194c-0.3-0.4-4.4-5.4-4.6-5.4c-5.6-0.1-9,4.2-9,9.9c0,5.7,4.6,10.4,10.4,10.4c5.7,0,9.4-3.4,9.5-8.9
		C66.5,199.4,60.5,194.3,60.3,194z"/>
	<path d="M127.4,36.8c6.6,0,13.1,0.7,19.3,2c0-0.8,0.1-1.7,0.1-2.2c0-5.6-4.5-10.2-10.1-10.2c-0.8,0-1.7,0.1-2.5,0.3
		c1.8-1.8,2.9-4.4,2.9-7.1c0-5.6-4.5-10.2-10.2-10.2c-5.6,0-10.1,4.6-10.1,10.2c0,2.7,1,5.2,2.7,7c-0.6-0.1-1.2-0.2-1.8-0.2
		c-5.6,0-10.1,4.6-10.1,10.2c0,0.6,0,1.6,0,2.3C113.9,37.6,120.5,36.8,127.4,36.8z"/>
	<path d="M36.7,110.1c-0.7-0.1-2-0.1-2.6-0.1c-5.6,0-10.2,4.5-10.2,10.1c0,0.6,0.1,1.2,0.2,1.8c-1.8-1.7-4.3-2.7-7-2.7
		c-5.6,0-10.2,4.5-10.2,10.1c0,5.6,4.6,10.1,10.2,10.1c2.8,0,5.3-1.1,7.1-2.8c-0.2,0.8-0.3,1.6-0.3,2.5c0,5.6,4.6,10.1,10.2,10.1
		c0.6,0,1.8,0,2.6-0.1c-1.4-6.3-2.1-12.9-2.1-19.7C34.6,122.9,35.4,116.4,36.7,110.1z"/>
	<path d="M237.1,119.3c-2.7,0-5.2,1-7,2.7c0.1-0.6,0.2-1.2,0.2-1.8c0-5.6-4.6-10.1-10.2-10.1c-0.5,0-1.4,0-2.1,0
		c1.4,6.3,2.1,12.8,2.1,19.5c0,6.8-0.7,13.4-2.1,19.7c0.8,0,1.6,0.1,2.1,0.1c5.6,0,10.2-4.5,10.2-10.1c0-0.8-0.1-1.7-0.3-2.5
		c1.8,1.8,4.4,2.8,7.1,2.8c5.6,0,10.2-4.5,10.2-10.1C247.4,123.8,242.8,119.3,237.1,119.3z"/>
	<path d="M164.1,129.5c0,2.2-0.2,4.4-0.6,6.5l34,0.5c0.2-2.3,0.3-4.6,0.3-7c0-2.4-0.1-4.7-0.3-7l-34,0.5
		C163.9,125.1,164.1,127.3,164.1,129.5z"/>
	<path d="M90.2,129.5c0-2.2,0.2-4.4,0.6-6.5l-33.6-0.5c-0.2,2.3-0.3,4.6-0.3,7c0,2.4,0.1,4.7,0.3,7l33.6-0.5
		C90.4,133.9,90.2,131.8,90.2,129.5z"/>
	<path d="M133.7,93.2l0.5-33.8c-2.2-0.2-4.5-0.3-6.8-0.3c-2.4,0-4.8,0.1-7.2,0.4l0.5,33.8c2.1-0.4,4.3-0.6,6.5-0.6
		C129.4,92.6,131.6,92.8,133.7,93.2z"/>
	<path d="M120.7,165.9l-0.5,33.8c2.4,0.2,4.8,0.4,7.2,0.4c2.3,0,4.6-0.1,6.8-0.3l-0.5-33.8c-2.1,0.4-4.3,0.6-6.5,0.6
		C124.9,166.5,122.8,166.3,120.7,165.9z"/>
	<path d="M101,103.4c0.2-0.2,0.4-0.4,0.6-0.6c1.4-1.3,2.8-2.5,4.4-3.6L82.6,75.1c-3.6,3-6.9,6.3-9.9,9.9l24.1,23.4
		C98.1,106.6,99.5,105,101,103.4z"/>
	<path d="M153.8,155.1c-0.1,0.1-0.1,0.1-0.2,0.2L153,156c-0.1,0.1-0.1,0.1-0.2,0.2c-1.4,1.3-2.9,2.6-4.5,3.7l23.6,24.3
		c3.6-3,7-6.3,9.9-9.9l-24.3-23.6C156.4,152.3,155.2,153.8,153.8,155.1z"/>
	<path d="M100.7,155.4c-1.4-1.5-2.7-3-3.9-4.7l-24.1,23.4c3,3.6,6.3,6.9,9.9,9.9l23.4-24.1c-1.7-1.2-3.2-2.5-4.7-3.9
		C101.1,155.8,100.9,155.6,100.7,155.4z"/>
	<path d="M157.5,108.4l24.3-23.6c-3-3.6-6.3-6.9-9.9-9.9l-23.6,24.3c1.8,1.2,3.5,2.7,5,4.2C154.8,104.9,156.2,106.6,157.5,108.4z"/>
	<path d="M96.9,115.6c6.6-5.2,16.2-6.2,22.9-3.4c6.9,2.8,10.1,9.1,8.6,16.8c3.1,3,9.6,2.4,14.8-1.3c6.1-4.4,10.2-13,4.4-24.3
		c-5.7-4.4-12.8-7-20.5-7C113.8,96.3,102.2,104.2,96.9,115.6z"/>
	<path d="M125.6,157.7c-5.9-3.9-9.2-11.2-8.2-18.2c0.7-5.3,3.8-9.4,8.6-11.1c1.2-6.5-1.4-11.5-7.1-13.9c-7.3-3-18.6-1-24,6.9
		c-0.7,2.6-1,5.4-1,8.2c0,18.4,14.9,33.3,33.3,33.3c4.4,0,8.6-0.9,12.4-2.4c-1.3,0.2-2.5,0.3-3.6,0.3
		C131.2,160.7,127.7,159.1,125.6,157.7z"/>
	<path d="M160.5,129.5c0-8.5-3.2-16.3-8.5-22.2c1.1,3.6,1.3,7.1,0.6,10.4c-1,4.7-3.8,8.9-7.8,11.8c-3.4,2.5-7.3,3.8-10.7,3.8
		c-2.8,0-5.4-0.8-7.2-2.6c-3.8,1.5-6.3,4.8-6.9,9.1c-0.8,6,2.1,12.5,7.1,15.8c5.9,3.9,13.9,3.4,22.6-1.5
		C156.3,148.1,160.5,139.3,160.5,129.5z"/>
</g>
</svg>